<svg xmlns="http://www.w3.org/2000/svg" viewBox="0 0 265.2 175.3"><title>hamburger-menu</title><path d="M132.7,165.3H257.1a17.5,17.5,0,0,1,4,.1,4.9,4.9,0,0,1,4.1,5c-.1,2.7-1.7,4.3-4.3,4.8a26.7,26.7,0,0,1-4,.1H8.5a33.9,33.9,0,0,1-4.5-.2,4.4,4.4,0,0,1-4-4.4c-.1-2.7,1.1-4.6,3.7-5.2a21,21,0,0,1,5-.2Z"/><path d="M132.3,92.6H6.3C3,92.6.1,91.7.1,87.8s2.7-5.3,6.3-5.3H255.8c4,0,8.6-.8,9.3,4.9.5,3.8-2.2,5.2-9.4,5.2Z"/><path d="M132.8,0H256.2c6.7,0,9.4,1.4,8.9,5.1-.6,5.5-4.9,5-8.8,5H7.9A16.5,16.5,0,0,1,3,9.4C.7,8.7-.2,6.7.1,4.3A4.3,4.3,0,0,1,3.8.2,33.9,33.9,0,0,1,8.3,0Z"/></svg>