<svg xmlns="http://www.w3.org/2000/svg" viewBox="0 0 130.1 127.9"><title>logo-javascript</title><path d="M0,53.9c1.9-2.2,1.6-5.2,2.5-7.8C5.7,36,10.6,26.9,18.1,19.3c1.2,1.5.6,3.2.6,4.8.1,17,.1,33.9.1,50.8C14.7,77,11.8,80,12,85s2.7,7.6,6.8,9.4v14.2C11.4,102.7,7.4,94.6,4,86c-1.6-3.9-2.7-8-4-12.1Z" fill="#dfb955"/><path d="M54,127.9c-3.4-2.4-7.7-2.1-11.5-3.7a97.3,97.3,0,0,1-14.4-7.3c.8-1.2,2-.8,3.2-.8H96.7c1.2,0,2.4-.4,3.2.8-8.1,5.8-17.6,8.2-26.9,11Z" fill="#dfba56"/><path d="M118.2,96.9c-2.7,5.8-6.3,11-12.2,14.2a58.3,58.3,0,0,0-5.9-.3c-23.7-.1-47.4-.2-71.2,0-4,.1-5.2-1.2-4.9-5s.1-7.3.1-11c4.8-1.9,8.2-4.9,7.9-10.5s-3.3-8.1-8-9.5c.1-17.8.2-35.6,0-53.4,0-3.5.9-4.6,4.5-4.5h79.3l9.3,10.9c1,2,.8,4.2.8,6.3Zm-26.4-2h2.9c8-.8,13.1-5,14.3-11.7s-1.9-12.3-9.3-15.9c-2.7-1.3-5.6-2.2-8.2-3.6s-5.5-3.1-3.8-6.9,5.5-3.3,8.6-.7c1.3,1.1,2.1,2,3.6.5s5.3-2.2,4.9-5S101.6,48,99.2,47A39.5,39.5,0,0,0,94,45.5c-7-1.6-12.7,1.1-15.1,7.2S77.8,67.3,84.3,71c3.6,2,7.3,3.8,11,5.8,1.9,1,3.1,2.4,2.7,4.8a4.9,4.9,0,0,1-4.4,4.1c-4,.9-7-.7-9.6-3.7s-5.4.9-7.8,2-.4,3.1.6,4.3C80.8,92.7,85.6,95.3,91.8,94.9ZM69,66c0-5.1-.3-10.3.1-15.5s-1.8-4.7-5.2-4.7-5.2.4-5,4.5c.3,9.4.1,18.7.1,28,0,3-.6,5.7-3.8,6.9s-5.4,0-7.3-2.4c-.6-.8-1.1-2.1-2.2-1.4s-5.7,2.4-6.5,5.2,1.8,4.2,3.7,5.5a16.9,16.9,0,0,0,4.5,2.1C59.7,98,69,91.2,69,78.5Z" fill="#deb851"/><path d="M99.2,11H28.8C48.4-3.7,79.6-3.7,99.2,11Z" fill="#dfb852"/><path d="M123.2,87.4c0-14.2-.1-28.4,0-42.6,0-1.4-.5-3,.6-4.3a64.4,64.4,0,0,1,1.6,42C124.9,84.2,124.5,86.1,123.2,87.4Z" fill="#e2c26b"/><path d="M24.1,94.8l-5.3-.4c-4.1-1.8-6.7-4.7-6.8-9.4s2.7-8,6.8-10.1H24c4.7,1.4,7.7,4.4,8,9.5S28.9,92.9,24.1,94.8Z" fill="#fff" stroke="#fff" stroke-miterlimit="10"/><path d="M91.8,94.9c-6.2.4-11-2.2-15-6.6-1-1.2-3.5-3-.6-4.3s4.3-5.9,7.8-2,5.6,4.6,9.6,3.7A4.9,4.9,0,0,0,98,81.6c.4-2.4-.8-3.8-2.7-4.8-3.7-2-7.4-3.8-11-5.8-6.5-3.7-8.5-10.7-5.4-18.3S87,43.9,94,45.5A39.5,39.5,0,0,1,99.2,47c2.4,1,5.3,2.2,5.6,4.6s-3.2,3.4-4.9,5-2.3.6-3.6-.5c-3.1-2.6-7.2-2.2-8.6.7s1.1,5.5,3.8,6.9S97,66,99.7,67.3c7.4,3.6,10.4,8.8,9.3,15.9s-6.3,10.9-14.3,11.7Z" fill="#f1f0ed"/><path d="M69,66V78.5C69,91.2,59.7,98,47.4,94.2a16.9,16.9,0,0,1-4.5-2.1c-1.9-1.3-4.3-3.2-3.7-5.5s4.1-3.7,6.5-5.2,1.6.6,2.2,1.4c1.9,2.4,4.2,3.7,7.3,2.4S59,81.3,59,78.3c0-9.3.2-18.6-.1-28-.2-4.1,1.6-4.5,5-4.5s5.6.3,5.2,4.7S69,60.9,69,66Z" fill="#f1f0ef"/><rect x="18.6" y="11.4" width="105.1" height="105.06" rx="12" fill="none" stroke="#fff" stroke-miterlimit="10" stroke-width="13"/></svg>