<svg xmlns="http://www.w3.org/2000/svg" viewBox="0 0 332 314.1"><title>logo-d3</title><path d="M332,227c-2.5,5.3-2.5,11.2-3.9,16.7-9.6,36.7-44,66-81.6,69.5-9.4.9-18.7.7-28,.8H128.1l-1.9-.3c4.7-3.4,9-6.3,13.1-9.5A181.7,181.7,0,0,0,187.7,249c1.7-3,3.5-4.2,7-4.1,12.6.2,25.3-.5,37.9.2,19.6,1.1,35.4-16.6,28.1-37,8.1-6.6,15.2-14.4,22.4-21.9,3.2-3.3,4.9-2.9,7.9.1,11.9,12.3,24.1,24.3,36.2,36.4,1.4,1.4,2.5,3.3,4.8,3.3Z" fill="#eb9f52"/><path d="M114.9,147c-1.1-4.9-1.9-9.8-3.3-14.6C100.3,94.7,67.1,69.6,27.6,69c-7.2-.1-14.3-.2-21.5.1-4.4.2-6-.8-5.9-5.6.3-19.4.1-38.7.1-58C.3,3.6.1,1.8,0,0H42c6.5,2.4,13.5,2.3,20.2,4,48.7,12.1,84.1,40.7,106.6,85.5A45,45,0,0,1,171,95c-2.7-.4-4.1,1.6-5.8,3.3l-45.5,45.5C118.3,145.1,117.2,147,114.9,147Z" fill="#e27e60"/><path d="M228.1,122.7c2.4-.1,4.9-.3,7.4-.3,12.6-.2,22.1-7.2,25.8-18.8s-.6-22.6-10.5-29.8l-1.9-1.6a47.9,47.9,0,0,1,3.6-4.1L293,27.5c1.5-1.5,3.4-2.8,3-5.4,1.8.2,2.8,1.7,4,2.7a96.6,96.6,0,0,1,28.1,45.6c1.7,5.8,1.5,12,3.9,17.6v16c-1.5.6-1,1.9-1.1,3-2.5,17.9-8.8,34.2-20.4,48.2-2.8-.3-4.6,1.4-6.4,3.2L287.5,175c-2.8,2.9-5,3.2-8.1,0-16-16.3-32.2-32.3-48.3-48.4C230,125.4,228.4,124.5,228.1,122.7Z" fill="#cf7b56"/><path d="M296,22.1c.4,2.6-1.5,3.9-3,5.4L252.5,68.1a47.9,47.9,0,0,0-3.6,4.1,40.9,40.9,0,0,0-18-3.3c-12.3.2-24.6.1-36.9.1-2.5,0-4.3-.3-5.7-2.8-14.6-26.2-34.7-47.4-59.7-64A27.5,27.5,0,0,1,126,0H246c.7,1.4,2,.8,3.1,1C266.5,4,282.7,9.9,296,22.1Z" fill="#bd6956"/><path d="M228.1,122.7c.3,1.8,1.9,2.7,3,3.9,16.1,16.1,32.3,32.1,48.3,48.4,3.1,3.2,5.3,2.9,8.1,0l16.6-16.6c1.8-1.8,3.6-3.5,6.4-3.2-1.3,2.1.1,3.4,1.2,4.9a97.6,97.6,0,0,1,17.5,37.1c1,4.6.7,9.4,2.8,13.8v15c-2.3,0-3.4-1.9-4.8-3.3-12.1-12.1-24.3-24.1-36.2-36.4-3-3-4.7-3.4-7.9-.1-7.2,7.5-14.3,15.3-22.4,21.9-5.8-11.9-15.3-17.2-28.6-16.5-6.5.4-13,0-19.5.1-2.4,0-3.7-.3-3.1-3.3,3.8-20.7,3.5-41.4.2-62.1-.4-2.9-.2-4.2,3-4C217.8,122.6,223,121.8,228.1,122.7Z" fill="#e79156"/><path d="M156.1,246c-17.3,25.6-40.5,43.9-68.8,55.9C65.8,311,43.3,314.4,20,314q-8.2-.2-16.5,0c-2.3.1-3.2-.7-3.2-3.1,0-21,.1-42,0-63,0-3.1,1.8-2.9,3.9-2.9,10.8-.3,21.7.6,32.5-.7,30.2-3.7,52.6-19.1,67.8-45.3l1.4-2.1c6.9,5.7,12.8,12.6,19.2,18.8C135.6,225.7,145.2,236.4,156.1,246Z" fill="#eb9f52"/><path d="M156.1,246c-10.9-9.6-20.5-20.3-31-30.3-6.4-6.2-12.3-13.1-19.2-18.8,7.5-15.8,10.2-32.5,9-49.9,2.3,0,3.4-1.9,4.8-3.2l45.5-45.5c1.7-1.7,3.1-3.7,5.8-3.3,6.4,13.1,9.9,27.1,11.7,41.4,4.8,38.9-3.4,74.9-25.1,107.7A13.9,13.9,0,0,1,156.1,246Z" fill="#e79156"/></svg>