<svg xmlns="http://www.w3.org/2000/svg" viewBox="0 0 224.8 225.1"><title>logo-gatsby</title><path d="M96,0h29c.4.9,1.3.9,2.1,1,62.2,9.2,103.1,61.6,97.1,124.1S157.4,234.3,94.4,223.6c-47.5-8.2-83.5-43.4-92.6-90.9-.2-1.3.1-3.1-1.8-3.7V99c1.5-.8,1-2.3,1.2-3.6C10.1,46.1,43.5,11.8,92.8,1.7,94,1.5,95.6,1.8,96,0Zm20.3,24.1c-43.1,0-78.6,26.8-88.8,64.2-.8,3.1-.5,5.1,1.9,7.5q50.1,50,99.9,100c2.3,2.2,4.2,2.6,7.1,1.8,35.8-9.5,63.2-44,64.5-80.9.1-3.3-.8-4.4-4.1-4.3h-40c-13,.1-12.9,0-12.7,13.3,0,3.4,1.2,4.2,4.4,4.1,9.6-.2,19.3.1,28.9-.1,4.1-.1,5.2.7,3.8,4.9-7.1,20.5-20.5,35.1-40.1,44.1-2.9,1.3-4.6,1.1-6.9-1.2Q90.9,134,47.3,90.7c-2.2-2.2-2.4-3.8-1.2-6.5,20.2-47.6,83-58.9,118.8-21.4,2.5,2.6,4.1,7.6,7.3,7.3s5.4-4.6,8.4-6.6,2.8-4,.5-6.7C163.2,35.5,140.3,24.9,116.3,24.1Zm-5.8,176.3c-7.7-8.7-82.2-82.9-85.8-85.4C23.6,158.5,63.2,200.9,110.5,200.4Z" fill="#6c589d"/><path d="M116.3,24.1c24,.8,46.9,11.4,64.8,32.7,2.3,2.7,2.8,4.4-.5,6.7s-5.4,6.3-8.4,6.6-4.8-4.7-7.3-7.3C129.1,25.3,66.3,36.6,46.1,84.2c-1.2,2.7-1,4.3,1.2,6.5q43.7,43.2,86.9,86.9c2.3,2.3,4,2.5,6.9,1.2,19.6-9,33-23.6,40.1-44.1,1.4-4.2.3-5-3.8-4.9-9.6.2-19.3-.1-28.9.1-3.2.1-4.4-.7-4.4-4.1-.2-13.3-.3-13.2,12.7-13.3h40c3.3-.1,4.2,1,4.1,4.3-1.3,36.9-28.7,71.4-64.5,80.9-2.9.8-4.8.4-7.1-1.8q-49.8-50.1-99.9-100c-2.4-2.4-2.7-4.4-1.9-7.5C37.7,50.9,73.2,24.1,116.3,24.1Z" fill="#fbfbfc"/><path d="M110.5,200.4c-47.3.5-86.9-41.9-85.8-85.4C28.3,117.5,102.8,191.7,110.5,200.4Z" fill="#fcfbfc"/></svg>