<svg xmlns="http://www.w3.org/2000/svg" viewBox="0 0 475.4 542.4"><title>logo-node</title><path d="M475.1,401.3c-1.1,6.6-5.4,10.9-10.9,14.1L326.3,495c-24.9,14.4-49.9,28.7-74.7,43.2-9.2,5.4-17.7,5.8-27.2.3q-106.3-61.8-213-123.1C5.1,411.8.7,406.9.3,399.3c1.6-1.4.9-3.4.9-5.1V147.6c0-1.7.6-3.7-.8-5.2.4-7.3,4.9-11.9,10.6-15.3L113.1,68.2c36.7-21.3,73.6-42.3,110.2-63.8,10-5.8,18.8-5.9,28.9,0q90,52.4,180.3,104.1c10.7,6.2,21.4,12.4,32,18.7,5.4,3.2,9.7,7.5,10.6,14.2-1.5,1.5-.8,3.5-.8,5.2q-.2,124.8,0,249.5C474.3,397.8,473.6,399.7,475.1,401.3ZM447.3,278.4h0c1.2-5.6,2.6-11.3-1-16.6-11.9-7.9-24.6-14.5-36.9-21.9-2.3-1.3-4.5-.7-6.6.5l-35.1,20.2a6.6,6.6,0,0,0-3.5,6.1c.1,13.5.1,27,.1,40.5a6.3,6.3,0,0,0,3.3,6.2l34.8,19.7c1.6.9,3.4,2.1,5.2,1.1,8.3-4.5,17.1-8.2,24.4-14.6-3.8-4-8.1-6.4-12.5-8.9-8.1-4.5-16.1-9.2-24.2-14-1.2-.7-2.6-1.2-3.1-3-2.3-8.7.3-15.1,8.3-19.5l3.9-2.3a3.5,3.5,0,0,1,3.7,0c7.4,3.5,14.3,7.3,12.6,17.4l-.2.4c.3,2.8,1.8,4,4.3,2.5,7.1-4.4,14.7-7.9,21.4-12.8Zm-393.9,32h-.1c1.5-.5,1.2-1.8,1.3-2.9a197.8,197.8,0,0,0,.2-23.1c.6-6.4,6.3-11.6,13-12.1s10.8,3.4,15.2,7.1c0,8.4,0,16.8.1,25.2.1,2.1-.6,4.3,1.1,6.1,7.1,5.8,15.4,9.7,23.3,14,3.4,1.9,3.6-1.4,3.6-3.8.1-18.3,0-36.6.1-54.9a6.3,6.3,0,0,0-3.5-6c-11.7-6.6-23.4-13.3-35-20.2-2.9-1.7-5.1-1.3-7.8.3-6,3.6-12.2,6.8-18.1,10.5s-13,6.6-18.6,11.3c-1.7,1.8-1.1,4.1-1.1,6.2-.1,18.1-.1,36.2-.1,54.3l-.3.3c0,.2.2.4.3.6,1,2,2.4,2.4,4.2,1,7.5-4.1,15.1-8,22.1-12.9Zm199.7-46.1h.1c-.1.1-.4.2-.4.3a363.9,363.9,0,0,0,0,46.7l.3.4c.3,1.1,1.2,1.5,2,2l35.8,20.7a6.4,6.4,0,0,0,7-.1c4.1-2.5,8.4-4.7,12.5-7.2,8.2-5.2,17.2-9.2,24.9-15.3,1.5-1.7,1-3.8,1-5.7V204.4c0-1.6-.2-3.3-.3-4.9s-2.4-2.7-4-3.6L314.2,186c-5-2.8-5.9-2.2-6,3.6V235c0,11.8,0,11.8-10.1,6.1-2.1-1.2-4-2.2-6.4-.7l-36.5,21.4C254.1,262.3,253,262.8,253.1,264.3Zm-29,45.1c1.3-.9,1.1-2.3,1.1-3.6V267.9c0-1.3.2-2.7-1.1-3.6a8.7,8.7,0,0,0-3.7-3.9c-11.7-6.7-23.4-13.4-35-20.2-2.6-1.5-4.8-1.6-7.4,0-11.6,6.8-23.3,13.5-35.1,20.2a9.6,9.6,0,0,0-3.6,3.9c-1.3.9-1,2.3-1.1,3.6v37.9c0,1.2-.2,2.7,1.2,3.5s2.6,3.3,4.5,4.4c11.2,6.4,22.4,12.8,33.6,19.4,3.1,1.8,5.7,1.7,8.8-.2q16.2-9.6,32.7-18.9A13.3,13.3,0,0,0,224.1,309.4Zm190.1-22.7c.1-4.4-3.6-8.7-7.4-8.8s-8.4,4.8-8.4,8.6c0,5.5,3,9.1,7.6,8.9S414.2,291.2,414.2,286.7Z" fill="#9ebc43"/><path d="M475.1,401.3c-1.5-1.6-.8-3.5-.8-5.2q-.2-124.8,0-249.5c0-1.7-.7-3.7.8-5.2.1,1.6.3,3.3.3,5q.2,124.7,0,249.4C475.4,397.7,475.2,399.5,475.1,401.3Z" fill="#8da833"/><path d="M.4,142.4c1.4,1.5.8,3.5.8,5.2V394.2c0,1.7.7,3.7-.9,5.1-.1-1.3-.3-2.6-.3-3.9V147.8C0,146,.3,144.2.4,142.4Z" fill="#8da833"/><path d="M255.2,261.8l36.5-21.4c2.4-1.5,4.3-.5,6.4.7,10.1,5.7,10.1,5.7,10.1-6.1V189.6c.1-5.8,1-6.4,6-3.6l17.8,9.9c1.6.9,3.5,1.5,4,3.6-1.1,1.1-.7,2.5-.7,3.8V311.8c-7.7,6.1-16.7,10.1-24.9,15.3-4.1,2.5-8.4,4.7-12.5,7.2a6.4,6.4,0,0,1-7,.1l-35.8-20.7c-.8-.5-1.7-.9-2-2,2.4-2.4-.1-4.8,0-7.2.3-13.4.1-26.8.1-40.2h-.1C254.8,264.3,255.2,263.2,255.2,261.8Zm53.1,33.4a26.3,26.3,0,0,0,.1-14.7c-.8-1.7-2.4-2.2-3.8-3-11-6.6-11-6.5-21.7.4a5,5,0,0,0-2.7,4.7c-.4,13-.5,13,10.9,19.3l.8.5a3.6,3.6,0,0,0,4.6.1Z" fill="#46473c"/><path d="M139.3,264.3a9.6,9.6,0,0,1,3.6-3.9c11.8-6.7,23.5-13.4,35.1-20.2,2.6-1.6,4.8-1.5,7.4,0,11.6,6.8,23.3,13.5,35,20.2a8.7,8.7,0,0,1,3.7,3.9v45.1A13.3,13.3,0,0,1,219,314q-16.5,9.3-32.7,18.9c-3.1,1.9-5.7,2-8.8.2-11.2-6.6-22.4-13-33.6-19.4-1.9-1.1-3.7-2.2-4.5-4.4C139.4,294.3,139.4,279.3,139.3,264.3Zm55.3,21.3c-.5-3.6,1.4-7.8-3.3-10.1s-6.9-5.4-10.6-5.1-8.9,3.9-12.5,6.9-.9,6.6-1,10,8.6,13.8,13.6,13.1,8.7-4,12.5-6.8S194.1,288.2,194.6,285.6Z" fill="#fcfdfa"/><path d="M446.2,279.4c-6.7,4.9-14.3,8.4-21.4,12.8-2.5,1.5-4,.3-4.3-2.5l.2-.4c1.7-10.1-5.2-13.9-12.6-17.4a3.5,3.5,0,0,0-3.7,0l-3.9,2.3c-8,4.4-10.6,10.8-8.3,19.5.5,1.8,1.9,2.3,3.1,3,8.1,4.8,16.1,9.5,24.2,14,4.4,2.5,8.7,4.9,12.5,8.9-7.3,6.4-16.1,10.1-24.4,14.6-1.8,1-3.6-.2-5.2-1.1l-34.8-19.7a6.3,6.3,0,0,1-3.3-6.2c0-13.5,0-27-.1-40.5a6.6,6.6,0,0,1,3.5-6.1l35.1-20.2c2.1-1.2,4.3-1.8,6.6-.5,12.3,7.4,25,14,36.9,21.9,1.5,5.5.8,11.1,1,16.6h0Z" fill="#46473c"/><path d="M83,279.4c-4.4-3.7-8.8-7.6-15.2-7.1s-12.4,5.7-13,12.1c-2.4.8-1.5,2.7-1.5,4.2-.1,7.3,0,14.5,0,21.8h.1c-.9.3-.9.6-.1,1-7,4.9-14.6,8.8-22.1,12.9-2.8-1.1-3-3.3-3-6,.1-18.8,0-37.6,0-56.4,5.6-4.7,12.4-7.5,18.6-11.3s12.1-6.9,18.1-10.5c2.7-1.6,4.9-2,7.8-.3,11.6,6.9,23.3,13.6,35,20.2a6.3,6.3,0,0,1,3.5,6c-.1,18.3,0,36.6-.1,54.9,0,2.4-.2,5.7-3.6,3.8-7.9-4.3-16.2-8.2-23.3-14V283.4C84.2,282,84.7,280.3,83,279.4Z" fill="#46473c"/><path d="M414.2,286.7c0,4.5-3.9,8.6-8.2,8.7s-7.6-3.4-7.6-8.9c0-3.8,4.9-8.7,8.4-8.6S414.3,282.3,414.2,286.7Z" fill="#46473c"/><path d="M335.3,311.8V203.3c0-1.3-.4-2.7.7-3.8.1,1.6.3,3.3.3,4.9V306.1C336.3,308,336.8,310.1,335.3,311.8Z" fill="#2f372b"/><path d="M28.2,261.9c0,18.8.1,37.6,0,56.4,0,2.7.2,4.9,3,6-1.8,1.4-3.2,1-4.2-1a1.4,1.4,0,0,0,0-.9c0-18.1,0-36.2.1-54.3C27.1,266,26.5,263.7,28.2,261.9Z" fill="#2f372b"/><path d="M253.2,264.3c0,13.4.2,26.8-.1,40.2-.1,2.4,2.4,4.8,0,7.2l-.3-.4a363.9,363.9,0,0,1,0-46.7C252.8,264.5,253.1,264.4,253.2,264.3Z" fill="#2f372b"/><path d="M53.3,310.4c0-7.3-.1-14.5,0-21.8,0-1.5-.9-3.4,1.5-4.2a197.8,197.8,0,0,1-.2,23.1C54.5,308.6,54.8,309.9,53.3,310.4Z" fill="#2f372b"/><path d="M139.3,264.3c.1,15,.1,30,.1,45-1.4-.8-1.2-2.3-1.2-3.5V267.9C138.3,266.6,138,265.2,139.3,264.3Z" fill="#8da833"/><path d="M224.1,309.4V264.3c1.3.9,1.1,2.3,1.1,3.6v37.9C225.2,307.1,225.4,308.5,224.1,309.4Z" fill="#8da833"/><path d="M83,279.4c1.7.9,1.2,2.6,1.2,4v27.3c-1.7-1.8-1-4-1.1-6.1C83,296.2,83,287.8,83,279.4Z" fill="#2f372b"/><path d="M447.3,278.4c-.2-5.5.5-11.1-1-16.6C449.9,267.1,448.5,272.8,447.3,278.4Z" fill="#2f372b"/><path d="M255.2,261.8c0,1.4-.4,2.5-2.1,2.5C253,262.8,254.1,262.3,255.2,261.8Z" fill="#2f372b"/><path d="M446.2,279.4l1.1-1Z" fill="#2f372b"/><path d="M53.3,311.4c-.8-.4-.8-.7.1-1A3.4,3.4,0,0,0,53.3,311.4Z" fill="#2f372b"/><path d="M27,322.4a1.4,1.4,0,0,1,0,.9c-.1-.2-.3-.4-.3-.6Z" fill="#8da833"/><path d="M308.3,295.2l-11.8,7.3a3.6,3.6,0,0,1-4.6-.1l-.8-.5c-11.4-6.3-11.3-6.3-10.9-19.3a5,5,0,0,1,2.7-4.7c10.7-6.9,10.7-7,21.7-.4,1.4.8,3,1.3,3.8,3C308.4,285.4,308.4,290.3,308.3,295.2Z" fill="#9ebc43"/><path d="M308.3,295.2c.1-4.9.1-9.8.1-14.7A26.3,26.3,0,0,1,308.3,295.2Z" fill="#2f372b"/><path d="M194.6,285.6c-.5,2.6,1.2,6.1-1.3,8s-7.8,6.1-12.5,6.8-13.9-8.3-13.6-13.1-1.7-7.7,1-10,7.8-6.5,12.5-6.9,7,3.4,10.6,5.1S194.1,282,194.6,285.6Z" fill="#9ebc43"/></svg>