<svg xmlns="http://www.w3.org/2000/svg" viewBox="0 0 210.5 210.9"><title>logo-css</title><path d="M0,102.3C.8,87.9,2.1,73.6,5.7,59.6,9.2,49.1,13.4,39,20.6,30.4,32.6,16,48.3,8,66.4,4.2a182.7,182.7,0,0,1,85.1,1.7c26.7,6.9,44.2,24,52.6,50.5.5,1.7,1.1,3.4,1.7,5.1,1.8,8.9,3.8,17.8,4.6,26.9,0,16.7.8,33.4-2.5,50-1.2,1.2-.7,2.7-.6,4.1l-.3,1.9c-.6,2-1.3,4-1.8,6-6.9,25.5-21.9,44-47.5,52.2-33.8,10.9-68.1,11-102,.9-22-6.5-37.4-21-46.3-42.4-3.4-8.3-4.7-17.2-7.2-25.7ZM51.1,49.7c.4,3.3.8,6.6,1.1,9.9,2.7,30.5,5.5,60.9,8.2,91.4.3,3.2,1.6,4.6,4.6,5.4,12.2,3.1,24.4,6.4,36.6,9.8a15.2,15.2,0,0,0,8.7-.1c11.7-3.3,23.4-6.6,35.1-9.5,4-1,5.4-2.8,5.7-6.6.6-9.8,1.6-19.6,2.5-29.4q3.2-35.7,6.7-71.5c.4-4.4-.5-5.9-5.4-5.8-32.6.2-65.2.1-97.9.1C50.9,43.4,50.9,43.4,51.1,49.7Z" fill="#5484bb"/><path d="M51.1,49.7c-.2-6.3-.2-6.3,5.9-6.3,32.7,0,65.3.1,97.9-.1,4.9-.1,5.8,1.4,5.4,5.8q-3.6,35.8-6.7,71.5c-.9,9.8-1.9,19.6-2.5,29.4-.3,3.8-1.7,5.6-5.7,6.6-11.7,2.9-23.4,6.2-35.1,9.5a15.2,15.2,0,0,1-8.7.1c-12.2-3.4-24.4-6.7-36.6-9.8-3-.8-4.3-2.2-4.6-5.4-2.7-30.5-5.5-60.9-8.2-91.4C51.9,56.3,51.5,53,51.1,49.7Zm54,3.1-40.4-.3c-3,0-3.5,1.1-3.1,3.9.7,6.2,1.1,12.5,1.6,18.8q3.1,34.8,6.1,69.5c.1,2.2,1,3.2,3.1,3.7l32.8,8.6c11.1-1.9,21.7-5.7,32.7-8.3,3.3-.7,4.2-2.2,4.3-5.4.6-9.3,1.5-18.5,2.4-27.8q2.6-29.9,5.4-59.6c.2-2.3-.3-3.4-2.9-3.4Z" fill="#fcfcfd"/><path d="M105.2,157l-32.8-8.6c-2.1-.5-3-1.5-3.1-3.7q-3-34.6-6.1-69.5c-.5-6.3-.9-12.6-1.6-18.8-.4-2.8.1-3.9,3.1-3.9l40.4.3c.1,4.4.1,8.8.1,13.2-10,.1-20,.4-29.9.2-3.7-.1-4.8,1.2-4.1,4.6a13.2,13.2,0,0,1,.6,3.9c-.3,4.6,2.1,5.3,6.1,5.2,8.7-.3,17.4-.1,26.2-.1A214.2,214.2,0,0,1,81.2,90.4c-7.4,3.1-7,3.1-7.1,11-.1,4.8,2,6,6.2,5.9,8.3-.1,16.6.1,24.9.1v21c-4.2-.3-8.1-1.9-12.1-2.7-2.1-.4-2.7-1.7-2.8-3.5s-.2-3.4-.2-5-.9-3.3-3-2.9c-3.7.7-7.8-1.8-11.1,1.6-.4.4,0,1.6,0,2.4.4,4.5,1,8.9,1,13.4.1,2.8,1.1,4.1,3.8,4.8,8.2,2.3,16.3,4.8,24.4,7.2Z" fill="#5484bb"/><path d="M105.2,157V143.7l25.9-7.3c2.1-.6,2.9-1.6,3.1-3.8.9-11.6,1.8-23.2,3-34.8.3-3.3-.6-4.4-4-4.3-8.1.2-16.1.1-24.2.1a113.9,113.9,0,0,1,22.1-10.4c6.5-2.2,8.6-6,8.4-12.5-.1-3.6-.9-4.5-4.4-4.5-10,.1-19.9-.1-29.9-.2,0-4.4,0-8.8-.1-13.2l42-.3c2.6,0,3.1,1.1,2.9,3.4q-2.9,29.7-5.4,59.6c-.9,9.3-1.8,18.5-2.4,27.8-.1,3.2-1,4.7-4.3,5.4C126.9,151.3,116.3,155.1,105.2,157Z" fill="#599fd2"/><path d="M105.2,66c10,.1,19.9.3,29.9.2,3.5,0,4.3.9,4.4,4.5.2,6.5-1.9,10.3-8.4,12.5A113.9,113.9,0,0,0,109,93.6c8.1,0,16.1.1,24.2-.1,3.4-.1,4.3,1,4,4.3-1.2,11.6-2.1,23.2-3,34.8-.2,2.2-1,3.2-3.1,3.8l-25.9,7.3c-8.1-2.4-16.2-4.9-24.4-7.2-2.7-.7-3.7-2-3.8-4.8,0-4.5-.6-8.9-1-13.4,0-.8-.4-2,0-2.4,3.3-3.4,7.4-.9,11.1-1.6,2.1-.4,3,.8,3,2.9s.2,3.3.2,5,.7,3.1,2.8,3.5c4,.8,7.9,2.4,12.1,2.7s9.3-2.3,13.9-3.4c1.5-.4,2-1.5,2.1-3,.2-3.8.4-7.6.8-11.4s-.9-3.4-3.4-3.4c-4.5.2-8.9.2-13.4.2-8.3,0-16.6-.2-24.9-.1-4.2.1-6.3-1.1-6.2-5.9.1-7.9-.3-7.9,7.1-11a214.2,214.2,0,0,0,22.9-10.6c-8.8,0-17.5-.2-26.2.1-4,.1-6.4-.6-6.1-5.2a13.2,13.2,0,0,0-.6-3.9c-.7-3.4.4-4.7,4.1-4.6C85.2,66.4,95.2,66.1,105.2,66Z" fill="#fcfcfd"/><path d="M105.2,107.4c4.5,0,8.9,0,13.4-.2,2.5,0,3.7.6,3.4,3.4s-.6,7.6-.8,11.4c-.1,1.5-.6,2.6-2.1,3-4.6,1.1-9,3.2-13.9,3.4Z" fill="#599fd2"/></svg>