<svg xmlns="http://www.w3.org/2000/svg" viewBox="0 0 377.2 375"><title>logo-next</title><ellipse cx="188.6" cy="187.6" rx="183.4" ry="187.4" fill="#fefefe"/><path d="M177.9.2V0h10.2V.2Z" fill="#fefefe"/><path d="M177.9.2h10.2c4.1.1,8.3.3,12.5.3a117.5,117.5,0,0,1,19.6,2.1,178.4,178.4,0,0,1,37.2,10.2A195.1,195.1,0,0,1,294.2,32c16.6,10.9,30.7,24.5,43,39.9,18.9,23.5,30.8,50.2,36.7,79.7a147.4,147.4,0,0,1,3.3,30.4v10.1a148.3,148.3,0,0,1-3.8,34.5,181.6,181.6,0,0,1-33.5,73.5,189.3,189.3,0,0,1-41.2,40.2c-2.2,1.6-4.5,3-6.7,4.5s-1.2.6-1.8-.4L267.4,310c-2.8-4.4-5.7-8.8-8.6-13-13.3-19.2-25.6-39-38.7-58.2s-26.9-41-40.7-61.2c-12.7-18.5-24.8-37.5-37.4-56.1a7,7,0,0,0-5.6-3.3,82.8,82.8,0,0,0-12.2,0c-2.8.2-4.5,2.2-6,4.2-.3.3-.2.8-.2,1.2q0,72.5-.1,144.8c0,3.2,3.3,6.5,6.4,6.4h9.4a7,7,0,0,0,6.3-3.5c.8-1.3.7-2.8.8-4.3.3-10,.3-20.1.3-30.1,0-24.6,0-49.3.3-73.9v-3a9.9,9.9,0,0,1,2.1,2.7c11.1,16.3,22,32.8,33.3,49,13.7,19.5,26.5,39.5,40.2,58.8,6.5,9.2,13.5,18.2,20.2,27.2s13.3,18.4,20.3,27.3,13.3,17.9,20.1,26.7c.9,1,.4,1.3-.4,1.8a147.2,147.2,0,0,1-15,7.2,201,201,0,0,1-43,12.2c-12,2.1-24.1,2.3-36.2,2a149.5,149.5,0,0,1-16.3-.8A241.7,241.7,0,0,1,140,369a184.8,184.8,0,0,1-39.6-15.4c-14.7-7.5-27.7-17.2-39.9-28.2-16.7-15-29.6-32.7-40.1-52.4A180.7,180.7,0,0,1,2.7,221,131.2,131.2,0,0,1,0,194.4c.1-5.4,0-10.8,0-16.3a180.6,180.6,0,0,1,6.1-39.4,167.6,167.6,0,0,1,13-34.1C29.2,85.2,41.6,67.3,57.7,52.3,70.1,40.8,83.5,30.6,98.5,22.7A189,189,0,0,1,137.9,6.8a197.5,197.5,0,0,1,32.3-6Zm79.4,250.9v-1.5c0-38.5.3-76.9.1-115.3,0-4.8-.2-9.6-.1-14.4s-3.4-7.1-6.8-7h-9.1a6.9,6.9,0,0,0-7.1,6.7v3.4c-.5,30.4-.1,60.9-.2,91.3a3.6,3.6,0,0,0,.6,2l6.7,10.2Z"/></svg>