<svg xmlns="http://www.w3.org/2000/svg" viewBox="0 0 209.2 186.1"><title>logo-react</title><path d="M40.9,154.1c-.6-8,.7-15.2,2.3-22.4.6-2.8-.1-3.5-2.8-4.4-12.2-4.1-23.9-9.2-33-18.8s-9.9-21,.1-31.2c8.2-8.4,18.6-13.2,29.5-17,6.8-2.3,6.7-2.3,5.4-9.8-1.8-10.5-2.6-21.1-.5-31.7C45,3.5,55.7-2.9,70.7,1.5c11.2,3.2,20.5,9.5,29,17.1,3.5,3.3,5.8,3.7,9.9.2C119.4,10,130,2.3,143.7.3c9.9-1.5,17.5,2.8,21.4,12.2,4.8,11.5,4.3,23.4,2.3,35.3-1.7,10.1-1.8,10,7.7,13.6s21.1,9.2,28.8,18.3,7,18.5-.6,27.1-20.3,15.4-32.5,19.5c-4.1,1.3-4.9,2.8-3.9,7,2.8,12.9,3.8,26-1,38.8-4.1,10.9-12.8,15.8-24.1,13.4-13.2-2.7-23.6-10.3-33.3-19.1-2.9-2.7-4.3-2.5-7.1,0a77,77,0,0,1-27.7,17.4c-18.3,6.4-31.9-2.8-32.8-22.3C40.8,158.8,40.9,156.1,40.9,154.1Zm63.9-27.6h0c5,0,10-.1,15,.1a6.3,6.3,0,0,0,6.1-3.4c5.2-8.7,10.5-17.3,15.1-26.4a7.5,7.5,0,0,0,0-7.5c-4.7-8.8-9.6-17.5-15-25.9-1.6-2.4-3.4-3.8-6.5-3.8-10,.2-20,.1-30,.1a5.7,5.7,0,0,0-5.7,3.1A273.6,273.6,0,0,0,68.1,89.9c-1.3,2.4-1,4.3.1,6.5,3.9,7.7,8.5,15.1,12.7,22.7,3.1,5.6,6.8,8.4,13.4,7.5C97.8,126.1,101.3,126.5,104.8,126.5ZM56.3,93.4c-.2-.8-.2-1.2-.3-1.5-3-7.9-6.1-15.8-9-23.7-.8-2.1-2-1.1-3.2-.8-9.9,3-19.3,7.1-27.5,13.6S6.8,96.9,16,104.6s17.3,11,27.1,14.4c2.6.8,3.5,0,4.3-2.3,2-5.8,4.3-11.5,6.5-17.2C54.7,97.3,55.6,95.1,56.3,93.4ZM49,154.5c.6,3.6.8,7.8,1.9,11.7,2.6,9.8,7.8,12.7,17.5,10s19.8-9.9,28.3-17.2c2-1.7,1.3-2.9-.1-4.5A182.9,182.9,0,0,1,82.5,137c-.7-1.1-1.5-2.4-3-2.4-8.1-.4-16.1-2.1-24.1-3.3-2.5-.3-3.1.8-3.6,2.9C50.2,140.7,50,147.4,49,154.5ZM159.9,31.4c.3-2.1-.4-5.3-1-8.6a31.3,31.3,0,0,0-1.2-5.3c-2.4-7.1-6.8-9.7-14.2-8.2-12.3,2.6-21.7,10.2-30.6,18.5-1.8,1.7-.8,3,.4,4.2A186.5,186.5,0,0,1,127,49.1a5.9,5.9,0,0,0,4.4,2.6c7.4,1.1,14.9,1.7,22.1,3.6,3.1.9,3.7-1.2,4.1-3.4A112.5,112.5,0,0,0,159.9,31.4Zm.1,120.5c.4-6-1-12.2-2.1-18.4-.4-2.6-1.5-3.1-4.1-2.6-7.3,1.4-14.7,2.5-22.1,3.5a5.4,5.4,0,0,0-4.5,2.5,175.5,175.5,0,0,1-14.2,18c-1.2,1.4-1.4,2.5.1,3.8,9.4,8,18.7,16,31.5,18.2,5.4,1,9.5-.9,12-5.7S160.2,158.8,160,151.9ZM49.8,31.1a90.5,90.5,0,0,0,2,20.8c.6,3,1.7,3.9,4.7,3.2a174.5,174.5,0,0,1,17.6-2.9c2.9-.4,6.4.2,8.5-3.1,4-6.4,9-11.9,13.9-17.5,1.4-1.6,1.6-2.7,0-4.1C87.9,20,79,13.1,67.9,9.9c-9.4-2.6-14.6.5-17.1,9.9C49.6,24.3,49.9,28.7,49.8,31.1Zm150.3,62c-.1-5.6-3.7-9.1-7.6-12.3-7.7-6.1-16.5-9.9-25.7-12.9-2.9-1-4.1-.3-5.1,2.7-2.3,6.5-5.1,13-7.7,19.4-.6,1.6-1.3,2.9-.4,4.8a213,213,0,0,1,9,22.1c.4,1.2.5,2.7,2.6,1.9,11.8-3.9,23.1-8.6,31.7-18A11,11,0,0,0,200.1,93.1Zm-52.6,10.7c-1.8,3.1-3.6,5.9-5,8.9s-5.2,7-5.8,11.6c5,.6,9.8-1.2,14.6-1.9,2.4-.3,3.3-1.7,2.4-3.8C151.8,113.7,150.5,108.5,147.5,103.8Zm-85.9-.3-5.8,16.1c-.5,1.4-.9,2.6,1.2,2.9l13.2,2c2.2.3,3.3-.5,1.9-2.8C68.8,116,65.5,110.4,61.6,103.5ZM93,135.6a73.9,73.9,0,0,0,10.6,13.1c1,1.1,1.9,1,2.9-.1a70.7,70.7,0,0,0,10.2-13Zm-.6-85.4h24.4c-3.5-4.4-6.7-8.1-9.7-12-1.5-1.7-2.7-2.1-4.4-.1C99.6,41.9,96.4,45.6,92.4,50.2Zm55.4,32.3c2-5.5,3.8-10.4,5.7-15.3.4-1.2.7-2.5-.8-2.9-5.4-1.3-10.8-2.9-16.9-2.5C139.9,69,143.6,75.4,147.8,82.5Zm-85.9-.6c4.1-7,7.8-13.5,11.7-20.4-5.6,0-10.4,1.5-15.3,2.2-2,.2-2.9,1.5-2.2,3.5C57.7,72,59.1,76.8,61.9,81.9Z" fill="#71c0db"/><path d="M104.8,126.5c-3.5,0-7-.4-10.5.1-6.6.9-10.3-1.9-13.4-7.5-4.2-7.6-8.8-15-12.7-22.7-1.1-2.2-1.4-4.1-.1-6.5A273.6,273.6,0,0,1,83.8,62.7a5.7,5.7,0,0,1,5.7-3.1c10,0,20,.1,30-.1,3.1,0,4.9,1.4,6.5,3.8,5.4,8.4,10.3,17.1,15,25.9a7.5,7.5,0,0,1,0,7.5c-4.6,9.1-9.9,17.7-15.1,26.4a6.3,6.3,0,0,1-6.1,3.4c-5-.2-10-.1-15-.1Zm18.3-33.4c.1-10.9-7.6-18.7-18.4-18.8A18.4,18.4,0,0,0,86,92.4a18.7,18.7,0,0,0,18.3,19.1A18.3,18.3,0,0,0,123.1,93.1Z" fill="#fdfdfe"/><path d="M56.3,93.4c-.7,1.7-1.6,3.9-2.4,6.1-2.2,5.7-4.5,11.4-6.5,17.2-.8,2.3-1.7,3.1-4.3,2.3-9.8-3.4-19.1-7.6-27.1-14.4S7,88.4,16.3,81,33.9,70.4,43.8,67.4c1.2-.3,2.4-1.3,3.2.8,2.9,7.9,6,15.8,9,23.7C56.1,92.2,56.1,92.6,56.3,93.4Z" fill="#fdfdfe"/><path d="M49,154.5c1-7.1,1.2-13.8,2.8-20.3.5-2.1,1.1-3.2,3.6-2.9,8,1.2,16,2.9,24.1,3.3,1.5,0,2.3,1.3,3,2.4a182.9,182.9,0,0,0,14.1,17.5c1.4,1.6,2.1,2.8.1,4.5-8.5,7.3-17.3,14.1-28.3,17.2s-14.9-.2-17.5-10C49.8,162.3,49.6,158.1,49,154.5Z" fill="#fdfdfe"/><path d="M159.9,31.4a112.5,112.5,0,0,1-2.3,20.5c-.4,2.2-1,4.3-4.1,3.4-7.2-1.9-14.7-2.5-22.1-3.6a5.9,5.9,0,0,1-4.4-2.6A186.5,186.5,0,0,0,113.3,32c-1.2-1.2-2.2-2.5-.4-4.2,8.9-8.3,18.3-15.9,30.6-18.5,7.4-1.5,11.8,1.1,14.2,8.2a31.3,31.3,0,0,1,1.2,5.3C159.5,26.1,160.2,29.3,159.9,31.4Z" fill="#fdfdfe"/><path d="M160,151.9c.2,6.9-.5,13.4-3.4,19.3s-6.6,6.7-12,5.7c-12.8-2.2-22.1-10.2-31.5-18.2-1.5-1.3-1.3-2.4-.1-3.8a175.5,175.5,0,0,0,14.2-18,5.4,5.4,0,0,1,4.5-2.5c7.4-1,14.8-2.1,22.1-3.5,2.6-.5,3.7,0,4.1,2.6C159,139.7,160.4,145.9,160,151.9Z" fill="#fdfdfe"/><path d="M49.8,31.1c.1-2.4-.2-6.8,1-11.3,2.5-9.4,7.7-12.5,17.1-9.9C79,13.1,87.9,20,96.5,27.5c1.6,1.4,1.4,2.5,0,4.1-4.9,5.6-9.9,11.1-13.9,17.5-2.1,3.3-5.6,2.7-8.5,3.1a174.5,174.5,0,0,0-17.6,2.9c-3,.7-4.1-.2-4.7-3.2A90.5,90.5,0,0,1,49.8,31.1Z" fill="#fdfdfe"/><path d="M200.1,93.1a11,11,0,0,1-3.2,7.7c-8.6,9.4-19.9,14.1-31.7,18-2.1.8-2.2-.7-2.6-1.9a213,213,0,0,0-9-22.1c-.9-1.9-.2-3.2.4-4.8,2.6-6.4,5.4-12.9,7.7-19.4,1-3,2.2-3.7,5.1-2.7,9.2,3,18,6.8,25.7,12.9C196.4,84,200,87.5,200.1,93.1Z" fill="#fdfdfe"/><path d="M147.5,103.8c3,4.7,4.3,9.9,6.2,14.8.9,2.1,0,3.5-2.4,3.8-4.8.7-9.6,2.5-14.6,1.9.6-4.6,3.9-7.7,5.8-11.6S145.7,106.9,147.5,103.8Z" fill="#fafbfb"/><path d="M61.6,103.5c3.9,6.9,7.2,12.5,10.5,18.2,1.4,2.3.3,3.1-1.9,2.8l-13.2-2c-2.1-.3-1.7-1.5-1.2-2.9Z" fill="#fafbfb"/><path d="M93,135.6h23.7a70.7,70.7,0,0,1-10.2,13c-1,1.1-1.9,1.2-2.9.1A73.9,73.9,0,0,1,93,135.6Z" fill="#fdfdfe"/><path d="M92.4,50.2c4-4.6,7.2-8.3,10.3-12.1,1.7-2,2.9-1.6,4.4.1,3,3.9,6.2,7.6,9.7,12Z" fill="#fdfdfe"/><path d="M147.8,82.5c-4.2-7.1-7.9-13.5-12-20.7,6.1-.4,11.5,1.2,16.9,2.5,1.5.4,1.2,1.7.8,2.9C151.6,72.1,149.8,77,147.8,82.5Z" fill="#fafbfb"/><path d="M61.9,81.9c-2.8-5.1-4.2-9.9-5.8-14.7-.7-2,.2-3.3,2.2-3.5,4.9-.7,9.7-2.2,15.3-2.2C69.7,68.4,66,74.9,61.9,81.9Z" fill="#fafbfb"/><path d="M123.1,93.1a18.3,18.3,0,0,1-18.8,18.4A18.7,18.7,0,0,1,86,92.4a18.4,18.4,0,0,1,18.7-18.1C115.5,74.4,123.2,82.2,123.1,93.1Z" fill="#71c0db"/></svg>