<svg xmlns="http://www.w3.org/2000/svg" viewBox="0 0 191.6 217.8"><title>logo-shopify</title><path d="M124.4,217.8l-45.1-8c-24.6-4.6-49.1-9.3-73.6-13.7-4.8-.9-6.3-2.2-5.5-7.6Q8.3,129,15.6,69.3c.7-5.9,2.8-9.4,8.9-10.7s12.3-2.4,16.9-5.7,4.1-10.4,6.4-15.7C52.2,27.2,57,17.6,65.1,10,71.4,4.1,78.6.4,87.4.1c1.8-.1,3.9-.4,5.3.8C98,5,104.5,6.5,110.5,9.1s9.2,8.1,11.4,14c1.5,3.9,3.3,5.2,7.2,3.4,1.3-.6,3-.3,4.4-.5-.9,17.6-2.2,35.2-2.9,52.8q-1.2,30.8-2.9,61.3C126.3,166,125.5,191.9,124.4,217.8ZM34.6,153.4c-1.7,5.7-3.4,11.1-5,16.5-.6,1.8.3,3.1,1.5,4.3,9.6,9.8,29.9,14,42.5,8.7,19.8-8.3,25.2-37,10-53.2-4.7-5-10.6-8.5-15.9-12.9-3.3-2.8-5.9-5.9-4.2-10.7s5.4-6.5,10-7a32.8,32.8,0,0,1,16.1,2.3c2.5,1,3.6.6,4.4-1.9,1.9-6.2,4.1-12.4,6.2-18.5.9-2.4.2-3.5-2.2-4.4-15.7-5.9-39,.2-49.4,13.1-13.3,16.3-11.4,36.1,4.7,49.5,2.1,1.8,4.3,3.6,6.3,5.6,4.4,4.4,5.6,9.9,3.1,14s-7,4.8-13.4,2.8S39.6,156.5,34.6,153.4ZM91.5,8.4c-9-1.5-15,1.5-20.2,6.2-8.4,7.6-13.2,17.5-17,27.9-.8,2.1-2.8,4.8-1.5,6.5s4.2-.5,6.4-1,4.5-1.3,6.7-2,3-1.2,3.4-3.2C72.3,29.1,77.9,17,91.5,8.4Zm-14,34,9.4-3c14.1-4.3,14.4-5.1,10.8-19.6-1.1-4.3-2.7-4-5.6-1.8C84.2,23.9,80.4,32.1,77.5,42.4Zm27.2-28.2c.7,5.2,1.8,9.4,1.7,13.7s1.5,5.9,5.5,3.8c1.7-.9,5.4-.2,4.3-3.5C114.3,22.4,111.8,16.8,104.7,14.2Z" fill="#a0b64a"/><path d="M124.4,217.8c1.1-25.9,1.9-51.8,3.3-77.7q1.7-30.6,2.9-61.3c.7-17.6,2-35.2,2.9-52.8,3.8.8,5.9,4,7.9,6.6,4.7,6.1,11,7.4,18,7.5s8.1,0,9.3,7.9c4,26.6,7.9,53.2,11.9,79.7q5.3,35.7,10.7,71.3c.3,2.1,1.1,4.4-2.2,5.2C167.6,208.9,146.1,214.1,124.4,217.8Z" fill="#6b873e"/><path d="M34.6,153.4c5,3.1,9.4,6.5,14.7,8.2s11.1,1.1,13.4-2.8,1.3-9.6-3.1-14c-2-2-4.2-3.8-6.3-5.6-16.1-13.4-18-33.2-4.7-49.5C59,76.8,82.3,70.7,98,76.6c2.4.9,3.1,2,2.2,4.4-2.1,6.1-4.3,12.3-6.2,18.5-.8,2.5-1.9,2.9-4.4,1.9a32.8,32.8,0,0,0-16.1-2.3c-4.6.5-8.4,2.2-10,7s.9,7.9,4.2,10.7c5.3,4.4,11.2,7.9,15.9,12.9,15.2,16.2,9.8,44.9-10,53.2-12.6,5.3-32.9,1.1-42.5-8.7-1.2-1.2-2.1-2.5-1.5-4.3C31.2,164.5,32.9,159.1,34.6,153.4Z" fill="#fdfdfc"/><path d="M91.5,8.4C77.9,17,72.3,29.1,69.3,42.8c-.4,2-1.7,2.7-3.4,3.2s-4.4,1.5-6.7,2-4.8,2.8-6.4,1,.7-4.4,1.5-6.5c3.8-10.4,8.6-20.3,17-27.9C76.5,9.9,82.5,6.9,91.5,8.4Z" fill="#343a3b"/><path d="M77.5,42.4C80.4,32.1,84.2,23.9,92.1,18c2.9-2.2,4.5-2.5,5.6,1.8,3.6,14.5,3.3,15.3-10.8,19.6Z" fill="#343a3b"/><path d="M104.7,14.2c7.1,2.6,9.6,8.2,11.5,14,1.1,3.3-2.6,2.6-4.3,3.5-4,2.1-5.7,1.1-5.5-3.8S105.4,19.4,104.7,14.2Z" fill="#343a3b"/></svg>