<svg xmlns="http://www.w3.org/2000/svg" viewBox="0 0 227 161.9"><title>mail-icon</title><path d="M226,146.5c-3.8,10.7-11.4,14.4-22.7,14.4q-89.9-.5-179.6,0C12.4,161,4.8,157.2,1,146.5V15.5C4.7,5,12,1,23.1,1q90.2.5,180.3,0C214.6.9,222.2,4.8,226,15.5ZM218.3,14.8l-5.5,4.6L127.7,93.5c-8.6,7.5-19.6,7.6-28.2.2L38.1,40.2,8.7,14.7c-.2,2.9-.6,4.8-.6,6.7V139.9c0,9.9,3.7,13.7,13.5,13.7H205.5c9.5,0,13.4-3.9,13.4-13.3V21.8C218.9,19.9,218.6,17.9,218.3,14.8ZM13.2,9,28.5,22.4l75,65.3c6.8,6,13.1,5.8,20.1,0l3-2.6,69.7-60.7L213.7,9Z" stroke="#000" stroke-miterlimit="10" stroke-width="2"/></svg>