<svg xmlns="http://www.w3.org/2000/svg" viewBox="0 0 512.2 378.1"><title>quote-marg-lg</title><g opacity="0.6"><path d="M225.1,378H4.1c-3.4,0-4.1-.7-4.1-4.1q.2-89,.1-178c.3-3.5.8-6.9,1-10.4,1.5-29,4.8-57.7,13.1-85.7C22,73.7,34.4,50.4,56.1,32.8S106.2,6.7,134.9,3.1C144.6,1.8,154.4,1,164.1,0h9c.1,4.7.2,9.3.2,14,0,27-.1,54,0,80.9.1,3.6-.7,5.1-4.5,5.3s-8.9,1.3-13.4,1.7c-21.3,2-35.2,13.4-42.5,33.3s-9.1,40.2-9.9,60.9c-.4,8.7-.3,8.7,8.6,8.7h106c7.5,0,7.5,0,7.5,7.3Z" fill="#2f2f2f"/><path d="M451.1,0h9c.1,30.5.1,60.9.2,91.4,0,7.9,0,7.9-7.5,9a41,41,0,0,1-4.9.6c-31,3.3-44.7,15-52.9,44.9-4.4,16-5.8,32.4-6.7,48.8-.6,10.1-.4,10.1,9.9,10.1l113.9.2q0,84.5.1,168.8c0,3.7-.9,4.3-4.4,4.3H287.1c0-51.3-.1-102.6.1-153.9.1-42,2-83.9,13.9-124.6,8.7-29.7,23.7-55.3,49.9-73C372.3,12.2,396.3,6.1,421.4,3,431.2,1.8,441.2,1,451.1,0Z" fill="#2f2f2f"/></g></svg>