<?xml version="1.0" encoding="utf-8"?>
<!-- Generator: Adobe Illustrator 23.0.3, SVG Export Plug-In . SVG Version: 6.00 Build 0)  -->
<svg version="1.1" id="Layer_1" xmlns="http://www.w3.org/2000/svg" xmlns:xlink="http://www.w3.org/1999/xlink" x="0px" y="0px"
	 viewBox="0 0 512.2 378.1" style="enable-background:new 0 0 512.2 378.1;" xml:space="preserve">
<style type="text/css">
	.st0{opacity:0.6;}
	.st1{fill:#FFFFFF;}
</style>
<title>quote-marg-lg</title>
<g class="st0">
	<path class="st1" d="M213.5-112h-221c-3.4,0-4.1-0.7-4.1-4.1c0.1-59.3,0.2-118.7,0.1-178c0.3-3.5,0.8-6.9,1-10.4
		c1.5-29,4.8-57.7,13.1-85.7c7.8-26.1,20.2-49.4,41.9-67c21.7-17.6,50.1-26.1,78.8-29.7c9.7-1.3,19.5-2.1,29.2-3.1h9
		c0.1,4.7,0.2,9.3,0.2,14c0,27-0.1,54,0,80.9c0.1,3.6-0.7,5.1-4.5,5.3s-8.9,1.3-13.4,1.7c-21.3,2-35.2,13.4-42.5,33.3
		c-7.3,19.9-9.1,40.2-9.9,60.9c-0.4,8.7-0.3,8.7,8.6,8.7h106c7.5,0,7.5,0,7.5,7.3V-112z"/>
	<path class="st1" d="M439.5-490h9c0.1,30.5,0.1,60.9,0.2,91.4c0,7.9,0,7.9-7.5,9c-1.6,0.3-3.3,0.5-4.9,0.6
		c-31,3.3-44.7,15-52.9,44.9c-4.4,16-5.8,32.4-6.7,48.8c-0.6,10.1-0.4,10.1,9.9,10.1l113.9,0.2c0,56.3,0,112.6,0.1,168.8
		c0,3.7-0.9,4.3-4.4,4.3H275.5c0-51.3-0.1-102.6,0.1-153.9c0.1-42,2-83.9,13.9-124.6c8.7-29.7,23.7-55.3,49.9-73
		c21.3-14.4,45.3-20.5,70.4-23.6C419.6-488.2,429.6-489,439.5-490z"/>
</g>
</svg>
